<?xml version="1.0" encoding="UTF-8" standalone="no"?><!DOCTYPE svg PUBLIC "-//W3C//DTD SVG 1.1//EN" "http://www.w3.org/Graphics/SVG/1.1/DTD/svg11.dtd"><svg width="100%" height="100%" viewBox="0 0 64 64" version="1.1" xmlns="http://www.w3.org/2000/svg" xmlns:xlink="http://www.w3.org/1999/xlink" xml:space="preserve" xmlns:serif="http://www.serif.com/" style="fill-rule:evenodd;clip-rule:evenodd;stroke-linejoin:round;stroke-miterlimit:2;"><path d="M36,4l21.76,0c1.236,0 2.24,1.004 2.24,2.24l0,21.76l4,4l-4,4l0,21.76c0,1.236 -1.004,2.24 -2.24,2.24l-21.76,0l-4,4l-4,-4l-21.76,0c-1.236,0 -2.24,-1.004 -2.24,-2.24l0,-21.76l-4,-4l4,-4l0,-21.76c0,-1.236 1.004,-2.24 2.24,-2.24l21.76,0l4,-4l4,4Z"/><path d="M13,52l0,-40l9.458,0l7.431,13.556c0.281,0.407 0.535,0.879 0.76,1.416c0.225,0.537 0.422,1.028 0.591,1.472c0.225,0.556 0.45,1.093 0.676,1.612l0.506,0c0.225,-0.519 0.451,-1.056 0.676,-1.612c0.225,-0.444 0.464,-0.935 0.718,-1.472c0.253,-0.537 0.492,-1.009 0.717,-1.416l7.009,-13.556l9.458,0l0,40l-7.009,0l0,-28.056c0,-0.592 0.014,-1.259 0.042,-2c0.028,-0.74 0.099,-1.463 0.211,-2.166c0.057,-0.815 0.113,-1.63 0.169,-2.445l-0.506,0c-0.338,0.778 -0.676,1.537 -1.014,2.278c-0.281,0.667 -0.605,1.389 -0.971,2.167c-0.366,0.778 -0.718,1.5 -1.055,2.166l-5.236,10.278l-7.093,0l-5.236,-10.278c-0.338,-0.703 -0.703,-1.444 -1.098,-2.222c-0.394,-0.778 -0.731,-1.5 -1.013,-2.166c-0.338,-0.778 -0.675,-1.537 -1.013,-2.278l-0.422,0c0.056,0.815 0.112,1.629 0.168,2.444c0,0.667 0.015,1.38 0.043,2.139c0.028,0.759 0.042,1.454 0.042,2.083l0,28.056l-7.009,0Z" style="fill:#fff;fill-rule:nonzero;"/></svg>